<?xml version="1.0" encoding="UTF-8" standalone="no"?>
<!-- Created with Inkscape (http://www.inkscape.org/) -->

<svg
   width="91.32209mm"
   height="36.810677mm"
   viewBox="0 0 323.58221 130.43153"
   id="svg2"
   version="1.1"
   inkscape:version="1.2.2 (732a01da63, 2022-12-09)"
   sodipodi:docname="TAG-Logo.svg"
   xml:space="preserve"
   xmlns:inkscape="http://www.inkscape.org/namespaces/inkscape"
   xmlns:sodipodi="http://sodipodi.sourceforge.net/DTD/sodipodi-0.dtd"
   xmlns="http://www.w3.org/2000/svg"
   xmlns:svg="http://www.w3.org/2000/svg"
   xmlns:rdf="http://www.w3.org/1999/02/22-rdf-syntax-ns#"
   xmlns:cc="http://creativecommons.org/ns#"
   xmlns:dc="http://purl.org/dc/elements/1.1/"><defs
     id="defs4" /><sodipodi:namedview
     id="base"
     pagecolor="#ffffff"
     bordercolor="#666666"
     borderopacity="1.0"
     inkscape:pageopacity="0.0"
     inkscape:pageshadow="2"
     inkscape:zoom="1.4986647"
     inkscape:cx="37.032966"
     inkscape:cy="91.414708"
     inkscape:document-units="mm"
     inkscape:current-layer="layer1"
     showgrid="false"
     inkscape:window-width="1920"
     inkscape:window-height="1009"
     inkscape:window-x="-8"
     inkscape:window-y="-8"
     inkscape:window-maximized="1"
     inkscape:showpageshadow="2"
     inkscape:pagecheckerboard="0"
     inkscape:deskcolor="#d1d1d1"><inkscape:grid
       type="xygrid"
       id="grid4136"
       originx="-143.08915"
       originy="-99.571036" /></sodipodi:namedview><metadata
     id="metadata7"><rdf:RDF><cc:Work
         rdf:about=""><dc:format>image/svg+xml</dc:format><dc:type
           rdf:resource="http://purl.org/dc/dcmitype/StillImage" /></cc:Work></rdf:RDF></metadata><g
     inkscape:label="Capa 1"
     inkscape:groupmode="layer"
     id="layer1"
     transform="translate(-143.08915,-99.57104)"
     style="display:inline"><path
       style="fill:#000000;fill-opacity:1;fill-rule:evenodd;stroke:#000000;stroke-width:0.9375px;stroke-linecap:butt;stroke-linejoin:miter;stroke-opacity:1"
       d="m 143.5579,100.03979 v 17.71654 h 10.62992 c 0,0 3.54331,-3.54331 7.08661,-3.54331 3.54331,0 10.62992,7.08662 10.62992,7.08662 v 31.88976 l -3.54331,3.67944 v 70.73001 h 17.71653 l 1e-5,-70.72149 -3.54331,-3.68796 v -28.34646 c 0,0 3.3234,-10.62992 7.08662,-10.62992 7.08661,0 17.54299,-1.0733 31.88976,7.08662 -6.1672,-15.66132 -24.80315,-21.25985 -35.43307,-21.25985 h -17.71654 c 0,0 -3.5433,3.54331 -7.08661,3.54331 -3.5433,0 -7.08661,-3.54331 -7.08661,-3.54331 z"
       id="tag_T"
       sodipodi:nodetypes="ccczccccccccsccczcc" /><g
       id="tag_A"
       style="fill:#000000;fill-opacity:1"
       transform="translate(73.311833,68.222359)"><path
         style="fill:#000000;fill-opacity:1;fill-rule:evenodd;stroke:#000000;stroke-width:0.9375px;stroke-linecap:butt;stroke-linejoin:miter;stroke-opacity:1"
         d="m 177.16535,46.062986 -7.08662,7.086614 v 38.976378 l 7.08662,7.086614 7.08661,-7.086614 V 53.1496 Z"
         id="path1229" /><path
         style="fill:#000000;fill-opacity:1;fill-rule:evenodd;stroke:#000000;stroke-width:0.9375px;stroke-linecap:butt;stroke-linejoin:miter;stroke-opacity:1"
         d="m 235.62992,38.976378 -7.08662,-7.08662 h -38.97637 l -7.08662,7.08662 7.08662,7.08661 h 38.97637 z"
         id="path1231" /><path
         style="fill:#000000;fill-opacity:1;fill-rule:evenodd;stroke:#000000;stroke-width:0.9375px;stroke-linecap:butt;stroke-linejoin:miter;stroke-opacity:1"
         d="m 240.94489,44.291333 -7.08662,7.086614 v 38.976378 l 7.08662,7.086614 7.08661,-7.086614 V 51.377947 Z"
         id="path1233" /><path
         style="fill:#000000;fill-opacity:1;fill-rule:evenodd;stroke:#000000;stroke-width:0.9375px;stroke-linecap:butt;stroke-linejoin:miter;stroke-opacity:1"
         d="m 177.16535,106.29921 -7.08662,7.08661 v 38.97638 l 7.08662,7.08661 7.08661,-7.08661 v -38.97638 z"
         id="path1235" /><path
         style="fill:#000000;fill-opacity:1;fill-rule:evenodd;stroke:#000000;stroke-width:0.9375px;stroke-linecap:butt;stroke-linejoin:miter;stroke-opacity:1"
         d="m 240.94489,104.52755 -7.08662,7.08662 v 38.97638 l 7.08662,7.08661 7.08661,-7.08661 v -38.97638 z"
         id="path1237" /><path
         style="fill:#000000;fill-opacity:1;fill-rule:evenodd;stroke:#000000;stroke-width:0.9375px;stroke-linecap:butt;stroke-linejoin:miter;stroke-opacity:1"
         d="m 235.62992,102.7559 -7.08662,-7.086616 h -38.97637 l -7.08662,7.086616 7.08662,7.08662 h 38.97637 z"
         id="path1239" /></g><path
       id="tag_G"
       style="display:inline;fill:#000000;fill-opacity:1;stroke:#000000;stroke-width:0.232053;stroke-dasharray:none;stroke-opacity:1"
       d="m 378.81092,107.68373 c -0.0958,0.0146 -0.18846,0.046 -0.27184,0.0941 l -13.82372,8.01919 c -0.33462,0.19306 -0.5011,0.64745 -0.37357,1.01027 l 5.2968,14.88056 c 0.12834,0.36236 0.0288,0.89829 -0.22254,1.19159 l -7.21655,9.68992 c -0.20744,0.32568 -0.68944,0.56557 -1.07559,0.53623 l -15.94657,-1.20575 c -0.38306,-0.0278 -0.77871,0.25061 -0.87784,0.62368 l -4.1029,15.44629 c -0.0991,0.37311 0.10481,0.81041 0.45289,0.97537 l 14.69839,6.98451 c 0.34802,0.16499 0.65371,0.6159 0.67973,0.99942 l 1.59186,11.52172 c 0.0786,0.37691 -0.0973,0.89022 -0.3889,1.14242 l -12.38937,10.64617 c -0.29251,0.25058 -0.37342,0.72939 -0.18,1.0627 l 8.021,13.82331 c 0.19292,0.3325 0.64897,0.501 1.01166,0.37137 l 15.3901,-5.47714 c 0.36361,-0.12811 0.89572,-0.0245 1.18423,0.23179 l 9.21487,7.09954 c 0.32057,0.21368 0.55922,0.70343 0.52928,1.08664 l -1.22952,16.22443 c -0.029,0.38483 0.25142,0.78135 0.62409,0.87965 l 15.44628,4.10288 c 0.37264,0.0983 0.8122,-0.10521 0.97718,-0.45329 l 6.86456,-14.44403 c 0.16711,-0.34814 0.61528,-0.64739 1.00048,-0.66673 l 11.99368,-1.45522 c 0.37888,-0.0735 0.89262,0.10503 1.14447,0.39789 l 10.29187,11.97997 c 0.25268,0.29239 0.72938,0.37342 1.0627,0.18001 l 13.8211,-8.0224 c 0.33335,-0.19338 0.50362,-0.64983 0.37316,-1.01207 l -5.16443,-14.51524 c -0.13037,-0.36225 -0.0225,-0.89198 0.23744,-1.17607 l 7.84377,-10.01812 c 0.21497,-0.32022 0.70253,-0.55777 1.08704,-0.52751 l 15.16145,1.14799 c 0.38355,0.0286 0.78008,-0.25174 0.87964,-0.62408 l 4.10249,-15.44809 c 0.0979,-0.37136 -0.10635,-0.81044 -0.45329,-0.97718 l -13.49277,-6.40943 c -5.58915,-1.90711 -6.43623,-2.41944 -12.07188,-4.66882 l -22.20579,-0.79371 c -3.219,-8.85392 -10.56434,-11.18227 -17.22732,-9.93287 -6.66297,1.2494 -11.69441,8.11249 -11.29751,15.33404 0.39689,7.22152 6.84601,12.9273 13.90429,13.19532 4.86859,0.18488 9.28413,-1.80421 12.24339,-5.68127 0.11918,-0.40126 13.90327,7.62089 13.90327,7.62089 -2.51597,7.2626 -4.95583,11.09625 -19.64524,14.13495 -14.68939,3.03872 -28.73959,-4.98641 -34.4058,-18.09431 -5.66621,-13.10788 -1.67751,-30.66172 11.93678,-38.78047 13.61431,-8.11875 25.96615,-3.83404 31.4977,-1.11233 0.34236,0.10822 0.74208,0.27215 1.00007,0.41185 l 1.40226,0.75735 c 0.33805,0.18171 1.33493,-0.28186 1.56899,-0.58802 l 9.58207,-10.99286 c 0.23404,-0.30617 0.16188,-0.72697 -0.16234,-0.93745 l -5.23578,-3.24305 c -0.33435,-0.19039 -0.58609,-0.65667 -0.55669,-1.04068 l 1.12896,-14.896 c 0.0278,-0.38307 -0.25314,-0.77943 -0.62368,-0.87785 L 411.875,103.3124 c -0.37312,-0.0991 -0.81399,0.10573 -0.97898,0.4537 l -6.52681,13.7333 c -0.16547,0.34719 -0.61389,0.65561 -0.9986,0.68333 l -12.58942,1.83871 c -0.3762,0.0836 -0.88975,-0.0843 -1.13997,-0.37811 L 379.6018,107.9578 c -0.18695,-0.21913 -0.50344,-0.31929 -0.79084,-0.27405 z m 23.84065,51.58013 c 3.89267,-0.88591 7.76657,1.55121 8.65303,5.44375 0.88592,3.89268 -1.55122,7.76657 -5.44376,8.65304 -3.89267,0.88589 -7.76656,-1.55122 -8.65303,-5.44377 -0.88591,-3.89266 1.55122,-7.76655 5.44376,-8.65302 z"
       sodipodi:nodetypes="cccccccccccccccccccccccccccccccccccccccccccccccsssccssscccccccccccccccccscccccc" /><g
       aria-label="echnik"
       transform="matrix(0,1.0788662,-0.926899,0,0,0)"
       id="echnik"
       style="font-size:39.7086px;line-height:125%;letter-spacing:0px;word-spacing:0px;stroke-width:0.93749999;stroke-dasharray:none;vector-effect:non-scaling-stroke;-inkscape-stroke:hairline;stroke:none;fill:#000000;fill-opacity:1"><path
         d="m 138.73591,-210.24366 q -1.03243,0.9133 -2.34281,1.66776 l -1.19126,0.59563 q -0.953,0.39709 -1.42951,0.55592 -1.42951,0.4368 -2.50164,0.4368 -2.06485,0 -3.57377,-1.15155 -1.42951,-1.07213 -2.10456,-2.89873 -0.59563,-1.66776 -0.59563,-4.12969 0,-0.83388 0.0794,-1.86631 0.0794,-0.55592 0.23825,-1.62805 0.0397,-0.11913 0.43679,-1.8663 0.47651,-1.46922 0.51622,-1.62806 1.31038,-3.45464 3.37523,-4.76503 0.99271,-0.63534 2.14426,-0.63534 0.95301,0 1.62805,0.4368 0.79418,0.55592 1.19126,1.46922 0.39709,0.83388 0.39709,2.06484 0,3.13698 -2.50164,6.39309 -0.23825,0.27796 -0.79418,0.953 -0.67504,0.75447 -1.19125,1.23097 l -1.46922,1.35009 -1.23097,0.99272 q 0.59563,1.62805 1.58835,2.38251 1.03242,0.63534 2.50164,0.63534 h 0.35738 l 1.3898,-0.11912 q 0.953,-0.19855 1.46921,-0.4368 l 1.50893,-0.63534 1.54864,-0.87359 z m -6.23425,-13.18325 q 0,-1.54864 -0.83388,-1.94572 -0.15884,-0.11913 -0.55592,-0.11913 -1.54864,0 -3.05757,3.77232 -0.79417,2.02514 -0.79417,4.68561 v 0.9133 l 0.15884,1.42951 q 2.73989,-2.10456 3.53406,-3.57377 0.39709,-0.67505 0.59563,-1.15155 l 0.31767,-0.71476 0.39709,-1.46922 q 0.23825,-0.91329 0.23825,-1.82659 z"
         style="font-family:UnPilgia;-inkscape-font-specification:UnPilgia;stroke-width:0.93749999;stroke-dasharray:none;vector-effect:non-scaling-stroke;-inkscape-stroke:hairline;stroke:none;fill:#000000;fill-opacity:1"
         id="path1012" /><path
         d="m 152.63384,-209.56861 q -3.37523,2.26339 -6.75046,2.26339 -2.50164,0 -4.36795,-1.74718 -2.02514,-1.90601 -1.82659,-5.67833 l 0.0794,-1.74718 0.4368,-2.38251 q 0.15883,-1.07214 1.07213,-3.05757 0.79417,-1.78688 1.50893,-2.73989 0.79417,-1.03242 1.94572,-1.66776 1.07213,-0.63534 2.18397,-0.55592 l 0.67505,0.0397 q 0.11912,0 0.75446,0.0794 0.27796,0 0.83388,0.23825 0.63534,0.15883 0.87359,1.19126 0.0794,0.4765 0.0794,0.953 0,1.74718 -0.4368,3.57378 l -0.99271,3.97086 -0.99272,-0.15884 q 0.27796,-2.62077 0.27796,-3.77232 0,-3.09727 -0.83388,-3.45464 -0.39708,-0.15884 -0.59562,-0.19855 -0.23826,-0.0794 -0.59563,-0.11912 -0.9133,0 -1.42951,0.71475 l -0.83388,1.19126 q -0.31767,0.51621 -0.71476,1.50893 -0.23825,0.67504 -0.59563,2.02514 l -0.27796,1.82659 q -0.0794,0.71476 -0.0794,0.75446 v 0.63534 q 0,1.78689 0.55593,3.33552 1.07213,2.85902 4.32823,2.85902 h 0.59563 q 0.4765,0 1.19126,-0.19854 l 0.99271,-0.27796 q 0.35738,-0.11913 0.71476,-0.31767 l 1.74718,-0.79417 z"
         style="font-family:UnPilgia;-inkscape-font-specification:UnPilgia;stroke-width:0.93749999;stroke-dasharray:none;vector-effect:non-scaling-stroke;-inkscape-stroke:hairline;stroke:none;fill:#000000;fill-opacity:1"
         id="path1014" /><path
         d="m 168.5172,-210.16424 q -2.93843,2.81931 -4.52678,2.81931 -0.71475,0 -1.07213,-0.87359 -0.35738,-0.83388 -0.35738,-2.42222 v -1.03243 l 0.15884,-1.94572 0.55592,-4.56649 0.31767,-2.3031 0.15883,-1.8663 q 0.11913,-1.07213 -0.43679,-1.07213 l -0.31767,0.11912 -0.15884,0.0794 q -0.15883,0.0794 -0.31766,0.23825 -0.35738,0.23825 -0.59563,0.75447 l -0.51621,0.79417 -0.47651,0.953 q -1.19126,2.34281 -1.90601,4.32824 -0.39709,1.15155 -0.67505,2.26339 -0.0794,0.23825 -0.15883,0.59563 -0.0794,0.35738 -0.23825,0.9133 -0.11913,0.55592 -0.23825,0.953 l -0.31767,1.78689 -0.23825,0.83388 q -0.11913,0.51621 -0.63534,0.87359 -0.55592,0.35738 -1.11184,0.35738 -0.59563,0 -0.59563,-1.07213 0,-1.46922 0.19854,-2.46194 l 0.59563,-6.63133 1.70747,-14.13626 q 0.39709,-2.89873 0.75446,-3.6929 0.27796,-0.47651 0.87359,-0.75447 l 1.07213,-0.19854 q 1.11185,0 1.07214,1.07213 l -0.0397,0.55592 -0.23825,0.95301 -0.23826,0.75446 -0.4765,1.62806 -0.55592,2.50164 -0.9133,4.40765 -0.43679,3.33552 -0.4368,4.64591 1.78689,-4.48707 0.75446,-1.46922 1.27068,-1.94572 q 0.83388,-1.27068 2.26339,-1.50893 l 0.4765,-0.0794 q 1.3898,0 1.74718,1.66777 0.0794,0.63533 0.0794,1.15155 v 0.67504 l -0.11913,0.83388 -0.23825,1.66776 -0.51621,2.42223 -0.4765,3.21639 -0.23826,2.85902 q -0.0794,0.83388 0.23826,1.74718 0.15883,0.15884 0.27796,0.15884 0.39708,0 0.91329,-0.39709 l 1.11184,-0.83388 0.31767,-0.27796 0.4368,-0.35738 z"
         style="font-family:UnPilgia;-inkscape-font-specification:UnPilgia;stroke-width:0.93749999;stroke-dasharray:none;vector-effect:non-scaling-stroke;-inkscape-stroke:hairline;stroke:none;fill:#000000;fill-opacity:1"
         id="path1016" /><path
         d="m 183.40785,-210.16424 q -2.73989,2.81931 -4.36794,2.81931 l -0.55592,-0.11913 q -1.07213,-0.35737 -1.07213,-3.09727 v -0.83388 l 0.11912,-0.87359 0.11913,-1.11184 0.0397,-0.43679 0.0397,-0.4765 0.59563,-3.85174 q 0.31767,-2.34281 0.31767,-4.05028 0,-0.953 -0.15883,-1.11184 -0.15884,-0.15883 -0.27796,-0.15883 -0.31767,0 -1.03243,0.95301 l -1.19125,2.18397 -0.71476,1.62805 -0.67504,1.62805 -0.75447,2.10456 -1.31038,3.77232 -0.27796,0.953 -0.31767,1.03243 -0.35738,0.83388 q -0.39708,0.75446 -1.23096,0.83388 -0.47651,0 -0.59563,-0.59563 l -0.0397,-0.4765 0.0794,-0.99272 0.11913,-0.87359 0.31767,-2.06485 0.27796,-2.46193 0.23825,-2.70018 q 0.0397,-0.35738 0.0397,-0.67505 0.0397,-0.31767 0.0397,-0.55592 0.0397,-0.23825 0.0397,-0.39709 0.0397,-0.19854 0.0397,-0.27796 0.0397,-0.0794 0.0397,-0.11912 v -0.59563 l 0.0397,-0.79417 v -0.59563 l 0.0794,-0.63534 0.0397,-1.46922 v -1.62805 q 0,-0.75446 0.63534,-0.79417 l 0.31766,-0.0397 h 0.35738 q 0.95301,0 0.95301,1.15155 l -0.0397,2.54135 -0.19854,1.98543 -0.63534,5.5592 q 0.43679,-1.46922 0.9133,-2.73989 l 0.67504,-1.74718 q 0.59563,-1.58834 0.99272,-2.34281 0.39708,-0.83388 1.42951,-2.46193 0.953,-1.54864 2.22368,-1.74718 l 0.4765,-0.0794 q 0.55592,0 1.07213,0.35738 0.75447,0.75447 0.75447,2.46194 v 0.67504 l -0.11913,0.83388 -0.27796,1.66776 -0.4765,2.42223 -0.4765,3.21639 -0.23826,2.85902 q -0.0794,0.83388 0.23826,1.74718 0.15883,0.15884 0.27796,0.15884 0.39708,0 0.91329,-0.39709 l 1.11184,-0.83388 0.31767,-0.27796 0.4368,-0.35738 z"
         style="font-family:UnPilgia;-inkscape-font-specification:UnPilgia;stroke-width:0.93749999;stroke-dasharray:none;vector-effect:non-scaling-stroke;-inkscape-stroke:hairline;stroke:none;fill:#000000;fill-opacity:1"
         id="path1018" /><path
         d="m 195.75715,-233.75115 q -1.42951,1.78689 -3.57377,2.85902 l -0.55592,-0.75446 q 0.59563,-1.42951 2.3428,-4.1297 l 0.59563,0.39709 q 0.31767,0.15883 0.63534,0.51621 0.27796,0.4765 0.55592,1.11184 z m 2.50164,23.50749 q -2.93843,2.70019 -5.75774,2.70019 -2.18398,0 -2.66048,-1.23097 l -0.51621,-1.78689 -0.27796,-1.19125 q -0.0397,-0.27796 -0.11913,-1.62806 l -0.0794,-2.22368 -3.01786,3.09727 -2.42222,2.34281 -0.67505,-1.46922 q 3.13698,-2.85902 6.11513,-6.15483 l 0.39708,-2.58106 0.63534,-3.01785 0.35738,-1.11184 q 0.27796,-0.87359 0.75446,-1.07214 l 1.42951,-0.51621 q 0.71475,0 0.71475,0.83388 l -0.11912,1.11184 q -0.11913,1.31039 -0.71476,2.50164 -0.11912,0.15884 -0.23825,0.4368 -0.11912,0.27796 -0.19854,0.39709 l -1.03242,1.70747 v 0.23825 l -0.0794,0.71475 -0.0794,1.46922 -0.0397,1.62805 q -0.0397,3.89145 1.31039,4.88416 0.67504,0.51621 1.54863,0.51621 0.87359,0 1.3898,-0.27796 l 1.27068,-0.67504 1.46922,-1.11185 z"
         style="font-family:UnPilgia;-inkscape-font-specification:UnPilgia;stroke-width:0.93749999;stroke-dasharray:none;vector-effect:non-scaling-stroke;-inkscape-stroke:hairline;stroke:none;fill:#000000;fill-opacity:1"
         id="path1020" /><path
         d="m 213.18915,-210.16424 q -2.06484,2.06485 -4.52678,2.06485 l -0.15883,-0.0397 H 208.305 q -0.59563,0 -1.11184,-0.31767 -0.83389,-0.39709 -1.50893,-1.35009 -0.11913,-0.15884 -0.31767,-0.4368 -0.55592,-0.99271 -1.3898,-3.2561 -0.11913,-0.31767 -0.27796,-0.79417 -0.11913,-0.47651 -0.15884,-0.59563 l 2.50165,-2.14427 q 2.7796,-2.42222 2.7796,-5.24153 v -0.39709 q 0,-0.51621 -0.15884,-0.87359 -0.15883,-0.39708 -0.43679,-0.67504 -0.4368,-0.55592 -1.27068,-0.55592 -1.54863,0 -2.54135,1.54863 l -1.90601,2.97815 -0.31767,9.60948 v 0.79417 q -0.0794,0.63534 -0.11912,0.9133 -0.11913,0.43679 -0.47651,0.79417 -0.15883,0.0794 -1.11184,0.43679 l -0.23825,0.0397 q -0.4765,0 -0.4765,-0.63534 v -0.43679 l -0.0397,-0.35738 0.0397,-1.66776 0.0794,-1.8663 0.0794,-0.87359 0.0397,-0.95301 0.0794,-0.83388 v -1.11184 l 1.15155,-16.6379 q 0.0397,-0.23825 0.19854,-1.3898 0.0397,-0.39709 0.23825,-1.31039 0.31767,-1.03242 1.46922,-1.03242 l 0.79417,-0.0794 q 0.79417,0 0.79417,0.83388 l -0.11912,0.79417 -0.31767,1.58835 -0.31767,1.54863 -0.55592,3.2164 -0.39709,2.73989 -0.31766,3.13698 1.66776,-2.46193 0.51621,-0.59563 0.99271,-0.95301 q 0.63534,-0.63533 1.74718,-0.63533 1.3898,0 2.18397,1.54863 0.67505,1.27068 0.67505,2.81931 0,1.23097 -0.27796,2.02514 -0.31767,1.46922 -0.63534,2.18397 -0.55592,1.07214 -1.35009,1.90602 l -2.3031,2.3428 q 1.19126,4.44737 3.57378,4.44737 1.35009,0 3.09727,-1.27068 z"
         style="font-family:UnPilgia;-inkscape-font-specification:UnPilgia;stroke:none;fill:#000000;fill-opacity:1;stroke-width:0.93749999;stroke-dasharray:none;vector-effect:non-scaling-stroke;-inkscape-stroke:hairline"
         id="path1022" /></g></g></svg>
